<mxfile host="65bd71144e">
    <diagram id="TMBwA5DztnVCV4QIb_Yg" name="Page-1">
        <mxGraphModel dx="1139" dy="825" grid="1" gridSize="10" guides="1" tooltips="1" connect="1" arrows="1" fold="1" page="1" pageScale="1" pageWidth="850" pageHeight="1100" math="0" shadow="0">
            <root>
                <mxCell id="0"/>
                <mxCell id="1" parent="0"/>
                <mxCell id="24" value="" style="whiteSpace=wrap;html=1;aspect=fixed;imageAspect=0;fillColor=#FFFFFF;" vertex="1" parent="1">
                    <mxGeometry x="1080" y="60" width="820" height="820" as="geometry"/>
                </mxCell>
                <mxCell id="2" value="User" style="swimlane;childLayout=stackLayout;horizontal=1;startSize=30;horizontalStack=0;rounded=1;fontSize=14;fontStyle=0;strokeWidth=2;resizeParent=0;resizeLast=1;shadow=0;dashed=0;align=center;" parent="1" vertex="1">
                    <mxGeometry x="140" y="307" width="178.09" height="253" as="geometry"/>
                </mxCell>
                <mxCell id="3" value="+ id&#10;+ name&#10;+ email&#10;+ password&#10;+ phoneNumber&#10;+ avatarUrl&#10;+ avatarPublicId&#10;+ course&#10;+ roles&#10;+ type&#10;+ registration&#10;+ siap&#10;+ emailCode&#10;+ receiveFormAnswer&#10;+ isActive" style="align=left;strokeColor=none;fillColor=none;spacingLeft=4;fontSize=12;verticalAlign=top;resizable=0;rotatable=0;part=1;" parent="2" vertex="1">
                    <mxGeometry y="30" width="178.09" height="223" as="geometry"/>
                </mxCell>
                <mxCell id="5" value="Communique" style="swimlane;childLayout=stackLayout;horizontal=1;startSize=30;horizontalStack=0;rounded=1;fontSize=14;fontStyle=0;strokeWidth=2;resizeParent=0;resizeLast=1;shadow=0;dashed=0;align=center;" parent="1" vertex="1">
                    <mxGeometry x="510" y="220" width="178.09" height="150" as="geometry"/>
                </mxCell>
                <mxCell id="6" value="+ id&#10;+ category&#10;+ author&#10;+ title&#10;+ contents&#10;+ referenceLinks&#10;+ resource" style="align=left;strokeColor=none;fillColor=none;spacingLeft=4;fontSize=12;verticalAlign=top;resizable=0;rotatable=0;part=1;" parent="5" vertex="1">
                    <mxGeometry y="30" width="178.09" height="120" as="geometry"/>
                </mxCell>
                <mxCell id="9" style="edgeStyle=none;html=1;entryX=1;entryY=0.75;entryDx=0;entryDy=0;endArrow=none;endFill=0;" parent="1" source="7" target="5" edge="1">
                    <mxGeometry relative="1" as="geometry">
                        <Array as="points">
                            <mxPoint x="764" y="333"/>
                        </Array>
                    </mxGeometry>
                </mxCell>
                <mxCell id="7" value="ResouceObject&lt;br&gt;&lt;br&gt;secure_url&lt;br&gt;asset_id&lt;br&gt;resource_type&lt;br&gt;etag" style="shape=note;size=20;whiteSpace=wrap;html=1;" parent="1" vertex="1">
                    <mxGeometry x="704" y="170" width="120" height="120" as="geometry"/>
                </mxCell>
                <mxCell id="10" value="Refectory" style="swimlane;childLayout=stackLayout;horizontal=1;startSize=30;horizontalStack=0;rounded=1;fontSize=14;fontStyle=0;strokeWidth=2;resizeParent=0;resizeLast=1;shadow=0;dashed=0;align=center;" parent="1" vertex="1">
                    <mxGeometry x="510" y="400" width="178.09" height="140" as="geometry"/>
                </mxCell>
                <mxCell id="11" value="+ id&#10;+ status&#10;+ vigencyDate&#10;+ startAnswerDate&#10;+ menuUrl" style="align=left;strokeColor=none;fillColor=none;spacingLeft=4;fontSize=12;verticalAlign=top;resizable=0;rotatable=0;part=1;" parent="10" vertex="1">
                    <mxGeometry y="30" width="178.09" height="110" as="geometry"/>
                </mxCell>
                <mxCell id="16" style="edgeStyle=orthogonalEdgeStyle;html=1;endArrow=none;endFill=0;" parent="1" source="14" edge="1">
                    <mxGeometry relative="1" as="geometry">
                        <Array as="points">
                            <mxPoint x="80" y="450"/>
                        </Array>
                        <mxPoint x="140" y="450" as="targetPoint"/>
                    </mxGeometry>
                </mxCell>
                <mxCell id="14" value="UserTypes&lt;br&gt;&lt;br&gt;student&lt;br&gt;&lt;div&gt;employeeTae&lt;/div&gt;&lt;div&gt;externalTeacher&lt;/div&gt;" style="shape=note;size=20;whiteSpace=wrap;html=1;" parent="1" vertex="1">
                    <mxGeometry x="20" y="170" width="120" height="120" as="geometry"/>
                </mxCell>
                <mxCell id="15" value="&lt;h1&gt;API-ALUNO-IFCE-CRATO&lt;/h1&gt;&lt;p&gt;Lorem ipsum dolor sit amet, consectetur adipisicing elit, sed do eiusmod tempor incididunt ut labore et dolore magna aliqua.&lt;/p&gt;" style="text;html=1;strokeColor=none;fillColor=none;spacing=5;spacingTop=-20;whiteSpace=wrap;overflow=hidden;rounded=0;" parent="1" vertex="1">
                    <mxGeometry x="40" y="40" width="360" height="120" as="geometry"/>
                </mxCell>
                <mxCell id="18" style="edgeStyle=orthogonalEdgeStyle;html=1;entryX=0.999;entryY=0.392;entryDx=0;entryDy=0;endArrow=none;endFill=0;entryPerimeter=0;" parent="1" source="17" target="3" edge="1">
                    <mxGeometry relative="1" as="geometry"/>
                </mxCell>
                <mxCell id="17" value="Roles&lt;br&gt;&lt;br&gt;&lt;div&gt;refectory_Manager&lt;/div&gt;&lt;div&gt;mural_Manager&lt;/div&gt;&lt;div&gt;permission_manager&lt;/div&gt;" style="shape=note;size=20;whiteSpace=wrap;html=1;" parent="1" vertex="1">
                    <mxGeometry x="305" y="170" width="120" height="120" as="geometry"/>
                </mxCell>
                <mxCell id="20" style="edgeStyle=orthogonalEdgeStyle;html=1;entryX=0.5;entryY=1;entryDx=0;entryDy=0;endArrow=none;endFill=0;" parent="1" source="19" target="11" edge="1">
                    <mxGeometry relative="1" as="geometry"/>
                </mxCell>
                <mxCell id="19" value="RefectoryStatus&lt;br&gt;&lt;br&gt;&lt;div&gt;open&lt;/div&gt;&lt;div&gt;openToAnswer&lt;br&gt;scheduled&lt;/div&gt;&lt;div&gt;closed&lt;/div&gt;" style="shape=note;size=20;whiteSpace=wrap;html=1;" parent="1" vertex="1">
                    <mxGeometry x="704" y="563" width="120" height="120" as="geometry"/>
                </mxCell>
                <mxCell id="23" style="edgeStyle=orthogonalEdgeStyle;html=1;entryX=0.25;entryY=1;entryDx=0;entryDy=0;endArrow=none;endFill=0;" edge="1" parent="1" source="21" target="11">
                    <mxGeometry relative="1" as="geometry"/>
                </mxCell>
                <mxCell id="21" value="RefectoryAnswer" style="swimlane;childLayout=stackLayout;horizontal=1;startSize=30;horizontalStack=0;rounded=1;fontSize=14;fontStyle=0;strokeWidth=2;resizeParent=0;resizeLast=1;shadow=0;dashed=0;align=center;" parent="1" vertex="1">
                    <mxGeometry x="308.09" y="583" width="178.09" height="160" as="geometry"/>
                </mxCell>
                <mxCell id="22" value="+ id&#10;+ refectory&#10;+ user&#10;+Â breakfast&#10;+ lunch&#10;+ afternoonSnack&#10;+ dinner&#10;+ nightSnack" style="align=left;strokeColor=none;fillColor=none;spacingLeft=4;fontSize=12;verticalAlign=top;resizable=0;rotatable=0;part=1;" parent="21" vertex="1">
                    <mxGeometry y="30" width="178.09" height="130" as="geometry"/>
                </mxCell>
            </root>
        </mxGraphModel>
    </diagram>
</mxfile>